<svg xmlns="http://www.w3.org/2000/svg" width="512" height="512" fill-rule="evenodd" clip-rule="evenodd" image-rendering="optimizeQuality" shape-rendering="geometricPrecision" text-rendering="geometricPrecision" viewBox="0 0 512 512"><defs><linearGradient id="a" x1="67.83" x2="474.19" y1="82.42" y2="389.98" gradientUnits="userSpaceOnUse"><stop offset="0" stop-color="#28aae0"/><stop offset="1" stop-color="#23b7ec"/></linearGradient></defs><path fill="url(#a)" d="M256 0c141.39,0 256,114.61 256,256 0,141.39 -114.61,256 -256,256 -141.39,0 -256,-114.61 -256,-256 0,-141.39 114.61,-256 256,-256z"/><path fill="#fefefe" fill-rule="nonzero" d="M371.22 163.51l-36.45 183.75c0,0 -5.1,12.74 -19.11,6.63l-84.1 -64.48 -0.39 -0.19c11.36,-10.2 99.45,-89.4 103.3,-92.99 5.96,-5.56 2.26,-8.87 -4.66,-4.67l-130.12 82.63 -50.2 -16.89c0,0 -7.9,-2.81 -8.66,-8.92 -0.77,-6.12 8.92,-9.43 8.92,-9.43l204.65 -80.28c0,0 16.82,-7.39 16.82,4.84z"/></svg>